<?xml version="1.0" standalone="no"?>
<!DOCTYPE svg PUBLIC "-//W3C//DTD SVG 20010904//EN"
 "http://www.w3.org/TR/2001/REC-SVG-20010904/DTD/svg10.dtd">
<svg version="1.0" xmlns="http://www.w3.org/2000/svg"
 width="1080.000000pt" height="1080.000000pt" viewBox="0 0 1080.000000 1080.000000"
 preserveAspectRatio="xMidYMid meet">
<metadata>
Created by potrace 1.14, written by Peter Selinger 2001-2017
</metadata>
<g transform="translate(0.000000,1080.000000) scale(0.100000,-0.100000)"
fill="#000000" stroke="none">
<path d="M2 10038 l-2 -768 58 -1 c31 0 325 -1 653 -2 682 -2 609 8 680 -100
68 -105 83 -169 129 -553 63 -518 69 -574 90 -774 11 -113 27 -257 34 -320 8
-63 22 -182 31 -265 9 -82 28 -241 41 -353 13 -112 27 -238 30 -280 8 -109 27
-305 79 -777 8 -77 22 -212 30 -300 8 -88 19 -187 25 -220 5 -33 21 -179 35
-325 13 -146 29 -303 35 -350 9 -73 28 -282 44 -485 10 -129 67 -693 76 -750
15 -100 2 170 -20 415 -20 228 -36 423 -45 555 -4 44 -13 136 -20 205 -8 69
-17 159 -20 200 -7 94 -29 296 -60 560 -13 113 -29 261 -35 330 -10 120 -24
249 -36 317 l-5 33 338 0 c186 0 358 2 383 4 41 4 356 5 493 2 65 -1 58 10 77
-121 17 -114 63 -245 127 -360 110 -200 203 -295 287 -295 23 0 51 7 63 15 20
14 27 13 78 -2 l55 -18 21 -70 c11 -38 34 -100 51 -138 17 -37 29 -70 26 -73
-3 -3 -35 0 -71 6 -54 10 -76 9 -128 -4 -120 -31 -347 -156 -441 -244 -62 -58
-184 -301 -227 -452 -63 -220 -74 -317 -74 -620 0 -163 5 -312 12 -365 7 -49
15 -117 18 -150 5 -60 5 -61 -29 -87 -48 -36 -98 -117 -129 -208 -20 -61 -29
-75 -45 -73 -302 31 -719 29 -914 -6 -210 -37 -405 -106 -457 -163 -29 -31
-53 -90 -53 -131 0 -30 -3 -34 -22 -31 -13 2 -149 24 -303 49 -154 25 -334 54
-400 65 -66 11 -174 27 -240 35 -66 9 -135 18 -154 21 l-33 5 6 217 c4 119 9
252 12 295 l6 79 32 -6 c17 -3 99 -10 181 -16 339 -22 465 -35 512 -52 26 -9
36 -8 58 6 24 16 33 16 133 2 59 -9 175 -23 257 -31 83 -9 200 -22 260 -29
120 -14 128 -13 230 34 39 17 97 43 130 58 63 27 121 73 127 101 2 9 1 30 -3
46 -6 29 -7 29 -8 -7 -1 -33 -7 -42 -49 -73 -26 -19 -72 -42 -102 -51 -30 -9
-75 -27 -100 -39 -25 -13 -61 -25 -80 -27 -31 -3 -36 1 -51 32 -51 106 -63
174 -74 410 -3 69 -10 172 -15 230 -5 58 -12 166 -16 240 -6 131 -43 439 -65
550 -6 30 -13 66 -16 79 -10 54 -11 9 -2 -69 5 -47 10 -92 10 -100 0 -8 6 -60
14 -115 8 -55 17 -179 20 -275 4 -96 8 -177 10 -180 2 -3 7 -84 10 -180 4 -96
9 -177 11 -179 2 -2 -3 -16 -11 -31 -8 -16 -17 -53 -21 -83 -5 -44 -3 -58 12
-76 11 -12 19 -26 19 -31 0 -6 4 -9 9 -7 11 3 24 -31 38 -98 6 -27 19 -69 29
-93 l19 -44 -37 6 c-39 7 -284 33 -573 62 -93 10 -171 22 -178 29 -14 13 -21
46 -66 310 -54 313 -93 622 -111 895 -6 82 -42 389 -51 433 -3 15 -9 25 -13
23 -4 -3 -1 -67 5 -143 7 -76 18 -205 24 -288 15 -200 48 -508 60 -570 10 -47
42 -252 75 -467 9 -53 17 -121 19 -150 l4 -53 -137 7 c-128 6 -389 21 -599 34
-87 5 -93 4 -90 -13 2 -13 17 -20 53 -27 28 -4 56 -10 62 -12 13 -3 12 -45 -2
-234 -2 -30 -9 -236 -16 -458 l-13 -403 -41 3 -40 3 -3 -41 -3 -40 87 8 c95 9
135 25 160 64 24 36 7 65 -60 105 l-56 34 0 83 c0 82 1 84 22 79 13 -3 52 -11
88 -17 36 -7 126 -25 200 -41 202 -43 334 -66 450 -78 58 -6 171 -21 253 -33
141 -21 147 -23 147 -45 0 -16 -10 -30 -28 -40 -16 -9 -46 -41 -67 -71 -33
-48 -48 -59 -133 -98 -93 -43 -247 -98 -402 -144 -41 -12 -95 -28 -120 -36
-64 -19 -315 -81 -380 -93 -109 -21 -155 -37 -158 -55 -3 -13 1 -17 15 -13 10
3 81 20 158 37 437 100 860 230 959 296 l24 15 -5 -173 c-3 -95 -7 -174 -8
-176 -1 -1 -24 -7 -51 -11 -27 -5 -175 -34 -329 -64 -154 -31 -332 -63 -395
-72 -63 -8 -142 -20 -175 -25 -33 -5 -78 -12 -100 -15 -84 -12 -95 -16 -95
-36 0 -23 -15 -24 197 6 97 14 182 24 190 21 7 -3 15 -1 18 4 4 6 19 10 34 10
16 0 83 12 150 26 67 14 126 22 133 18 6 -4 8 -3 5 3 -4 7 16 13 56 18 34 4
71 9 82 12 11 2 34 6 50 7 17 2 37 6 45 9 28 10 75 19 130 24 30 3 58 10 61
15 4 5 9 -32 13 -84 13 -177 63 -316 139 -390 23 -23 33 -36 21 -30 -20 11
-21 10 -11 -36 8 -39 17 -53 56 -81 25 -19 71 -42 102 -51 30 -10 88 -40 129
-68 129 -92 240 -120 501 -129 114 -4 215 -2 290 7 211 23 416 89 490 157 l40
38 -6 60 c-4 33 -13 79 -22 102 -12 34 -13 44 -2 55 14 16 69 12 69 -6 0 -7 3
-6 9 2 7 12 109 8 306 -13 22 -2 85 -7 140 -11 55 -3 102 -7 105 -9 9 -6 92
-16 150 -20 45 -2 141 -14 255 -30 57 -8 160 -28 236 -45 47 -11 105 -22 130
-25 24 -3 55 -7 69 -10 48 -9 87 -15 206 -30 65 -9 126 -18 134 -20 28 -8 680
-66 768 -68 81 -2 156 5 220 19 36 8 252 73 277 84 20 9 60 22 80 26 10 2 46
14 428 136 103 33 224 75 268 94 45 18 85 31 89 29 5 -3 11 2 14 11 4 9 9 14
13 11 10 -11 61 25 67 47 3 12 6 37 6 57 l0 37 118 1 c64 1 152 6 195 12 42 6
86 9 97 6 11 -3 18 -2 16 2 -3 4 23 13 57 20 34 6 84 19 110 27 26 9 55 13 63
10 8 -3 13 -2 10 3 -3 4 20 14 52 21 31 7 107 26 169 41 141 36 269 45 355 25
60 -14 279 -53 343 -62 66 -9 243 -58 377 -105 125 -44 193 -65 273 -85 11 -3
38 -7 60 -10 22 -2 72 -10 110 -19 39 -8 99 -19 135 -25 36 -7 69 -14 74 -17
4 -3 32 -7 60 -9 28 -2 85 -10 126 -18 76 -15 147 -27 275 -46 78 -12 286 -46
382 -62 34 -6 61 -14 58 -18 -2 -3 9 -4 26 -2 17 3 29 0 29 -7 0 -6 -3 -10 -7
-10 -5 1 -17 1 -27 0 -20 -1 -20 -1 0 -15 10 -8 16 -18 11 -22 -4 -4 -7 -2 -7
5 0 17 -31 -15 -34 -35 -3 -22 -115 -87 -140 -81 -12 3 -48 15 -81 27 -33 11
-79 24 -102 27 -24 3 -41 8 -39 12 2 3 -27 7 -65 9 -65 2 -125 24 -115 41 2 3
-6 7 -17 8 -73 8 -110 16 -95 22 9 3 -63 6 -160 6 -179 0 -257 8 -247 26 4 5
-1 9 -9 9 -8 0 -19 6 -23 13 -11 16 -115 63 -183 81 -128 35 -470 77 -570 71
-25 -2 -101 -6 -170 -9 -195 -9 -477 -60 -630 -114 -30 -10 -80 -27 -110 -37
-30 -10 -84 -36 -120 -58 -205 -125 -280 -227 -439 -600 -39 -92 -85 -190
-101 -218 -17 -27 -30 -52 -30 -55 0 -3 -27 -42 -60 -86 -33 -43 -60 -81 -60
-84 0 -2 99 -4 219 -4 l219 0 5 33 c5 33 44 138 63 170 10 18 171 80 185 72 4
-3 10 -1 13 3 17 29 316 53 631 52 517 -2 886 -24 869 -51 -3 -5 2 -6 10 -3 8
3 70 -8 138 -24 244 -59 272 -64 377 -66 113 -1 270 9 361 23 30 5 116 17 190
26 253 31 336 54 392 110 32 32 68 122 68 170 0 41 -31 122 -65 173 l-25 37
34 17 c69 35 149 130 191 226 10 23 22 42 27 42 4 0 9 -75 9 -167 1 -93 5
-321 8 -508 4 -187 8 2092 9 5064 1 2972 -1 5401 -5 5397 -4 -3 -6 -402 -4
-886 l3 -880 -359 0 c-197 0 -547 0 -778 0 -231 -1 -467 -1 -524 0 l-103 0 6
73 c3 39 9 438 12 885 5 710 4 812 -8 812 -17 0 -23 -240 -34 -1342 l-7 -628
882 -1 c484 -1 887 -2 894 -3 9 -1 13 -510 15 -2503 1 -1377 -1 -2503 -6
-2503 -4 0 -34 28 -67 61 -125 128 -374 253 -554 279 -150 21 -550 -64 -734
-156 -37 -19 -74 -34 -81 -34 -7 0 -18 12 -25 26 -34 74 -270 394 -360 488
-68 71 -301 280 -356 321 -22 16 -65 47 -95 69 -30 22 -72 56 -94 74 -48 43
-140 87 -358 171 -94 36 -173 71 -174 76 -2 6 3 18 10 28 13 16 16 16 68 -8
30 -14 75 -28 100 -31 96 -13 226 52 349 175 123 123 202 335 224 606 10 118
-11 348 -45 482 -31 122 -100 280 -151 344 -36 46 -95 79 -147 83 -42 2 -48
13 -32 60 16 49 -6 97 -59 127 -23 12 -40 28 -38 33 2 6 23 22 46 35 41 23 43
25 37 60 -23 143 -305 505 -561 719 -82 69 -218 165 -247 174 -6 2 68 83 164
179 177 176 357 384 343 397 -4 4 -66 -56 -139 -133 -72 -77 -203 -210 -291
-295 -314 -305 -371 -364 -432 -457 -35 -52 -68 -116 -78 -149 -11 -37 -29
-70 -50 -91 -31 -31 -31 -33 -11 -33 12 0 36 15 54 33 24 25 32 42 32 70 0 31
7 45 47 82 26 25 49 45 53 45 9 0 156 -216 227 -335 33 -55 87 -154 120 -220
61 -121 173 -376 173 -393 0 -5 12 -26 26 -48 l26 -38 -26 -75 c-63 -182 -81
-626 -37 -860 41 -213 95 -349 172 -432 22 -23 39 -46 39 -50 0 -5 -20 -31
-44 -58 -25 -28 -64 -79 -87 -113 -214 -318 -569 -588 -939 -716 -195 -67
-441 -109 -745 -127 -55 -3 -133 -8 -174 -12 -41 -3 -146 -8 -235 -12 l-161
-6 210 -8 c213 -8 553 4 702 24 77 10 275 50 342 69 94 26 3 -30 -104 -64
-295 -94 -689 -136 -965 -102 -267 32 -616 110 -845 187 -134 46 -438 180
-535 237 -66 39 -133 101 -286 268 -104 112 -140 176 -183 322 -27 92 -29 107
-21 179 11 104 24 143 77 240 l45 83 -35 102 c-48 142 -61 227 -61 413 -1 170
7 234 55 422 69 270 138 450 246 638 111 195 185 292 374 488 197 204 222 218
183 104 -23 -69 -12 -79 27 -22 71 104 176 184 354 271 72 35 142 64 157 64
31 0 46 16 21 23 -10 3 0 5 22 5 22 0 71 9 108 20 152 47 308 66 532 67 116 0
223 -4 238 -8 l29 -8 -45 -42 c-59 -55 -86 -138 -68 -207 15 -56 47 -93 61
-70 6 10 5 22 -4 35 -36 56 -25 164 24 218 16 18 31 29 34 26 3 -3 10 -48 16
-100 5 -52 15 -111 21 -132 9 -33 12 -37 26 -26 17 15 16 33 -11 199 -30 182
-17 469 30 690 49 229 108 391 216 603 34 64 59 119 57 122 -8 7 -104 -144
-147 -230 -120 -242 -195 -554 -208 -873 l-7 -160 -191 4 c-174 5 -208 2 -386
-24 -107 -16 -197 -28 -199 -26 -2 2 8 22 22 46 38 66 73 173 138 423 33 127
91 340 129 475 37 135 80 297 95 360 39 169 77 297 165 565 80 244 190 622
190 656 0 43 -19 14 -36 -53 -16 -68 -74 -246 -192 -588 -28 -80 -67 -219 -87
-310 -55 -250 -82 -351 -136 -519 -46 -142 -66 -215 -163 -581 -76 -286 -158
-493 -200 -504 -44 -12 -46 -9 -30 42 131 424 265 1021 268 1187 0 52 -6 104
-18 149 -18 63 -18 77 -7 175 16 133 23 164 68 276 41 103 279 577 341 678 36
57 39 67 23 67 -27 0 -106 -119 -186 -280 -37 -74 -89 -178 -115 -230 -114
-228 -159 -371 -167 -540 -4 -94 -2 -123 12 -160 27 -72 28 -91 10 -232 -23
-180 -212 -932 -285 -1135 -9 -26 -21 -35 -63 -49 -84 -27 -254 -124 -328
-186 -39 -33 -71 -53 -75 -47 -14 23 35 161 108 306 15 29 8 35 -21 20 -14 -7
-25 -22 -27 -37 -2 -27 -113 -253 -114 -234 -1 27 38 132 100 269 136 302 168
410 265 898 94 479 145 664 227 832 50 103 22 68 -36 -44 -91 -179 -139 -346
-231 -804 -62 -309 -90 -422 -139 -564 -44 -130 -116 -294 -126 -288 -20 12
-64 153 -94 300 -31 154 -33 158 -39 109 -12 -100 26 -285 80 -390 l37 -72
-27 -61 c-30 -69 -57 -166 -57 -205 0 -20 -29 -57 -115 -149 -64 -67 -121
-122 -127 -122 -14 0 -45 81 -65 169 -29 127 -17 793 18 1046 58 414 167 721
409 1155 116 209 272 469 363 605 71 106 80 131 42 116 -25 -9 -282 -424 -451
-729 -274 -492 -381 -902 -404 -1552 -6 -154 -13 -288 -16 -298 -3 -9 -33 -31
-67 -48 -113 -56 -231 -142 -328 -238 -53 -53 -103 -107 -112 -120 -12 -18
-21 -22 -41 -17 l-26 6 5 98 c2 53 7 662 10 1352 3 690 7 1320 8 1400 l2 145
-392 3 -393 2 -1 -282 c0 -156 -1 -556 -1 -890 -1 -334 -5 -605 -9 -602 -5 3
-5 -5 -1 -18 7 -19 7 -575 2 -1966 0 -139 -3 -259 -6 -267 -5 -13 -86 -15
-599 -15 l-594 0 -5 43 c-7 47 -12 95 -26 212 -5 44 -15 134 -24 200 -30 238
-79 684 -78 705 0 8 -3 44 -8 80 -5 36 -12 101 -15 145 -4 44 -8 82 -10 86 -2
3 -9 55 -15 115 -65 625 -70 658 -113 759 -38 91 -118 193 -154 197 -10 1
-306 2 -658 3 l-640 0 -2 665 c-2 366 -4 703 -6 750 -2 47 -4 -260 -5 -682z
m3009 670 l-9 -33 -1 32 c-1 17 2 40 6 50 12 30 16 -9 4 -49z m6 -93 c0 -19
-3 -32 -8 -29 -14 9 -9 64 6 64 0 0 1 -16 2 -35z m8 -136 c-4 -22 -11 -36 -17
-33 -5 3 -7 18 -3 33 10 34 10 41 1 71 -6 23 -6 23 9 -3 12 -20 15 -40 10 -68z
m-2 -71 c4 -12 4 -24 2 -27 -3 -2 -5 2 -5 10 0 11 -2 11 -10 -1 -8 -12 -10 -9
-10 13 0 32 15 36 23 5z m424 -30 c-3 -7 -5 -2 -5 12 0 14 2 19 5 13 2 -7 2
-19 0 -25z m-424 -61 c-9 -15 -12 -47 -3 -47 3 0 7 -15 8 -32 1 -33 1 -33 -13
7 -16 43 -19 78 -9 88 11 10 25 -3 17 -16z m-4 -175 c0 -30 -2 -33 -9 -17 -12
28 -12 67 0 60 6 -3 10 -23 9 -43z m1 -72 c0 -16 -4 -30 -10 -30 -5 0 -10 14
-10 30 0 17 5 30 10 30 6 0 10 -13 10 -30z m-3 -203 c1 -89 -2 -151 -6 -137
-14 48 -12 300 2 300 1 0 3 -73 4 -163z m433 142 c0 -11 -4 -18 -10 -14 -5 3
-7 12 -3 20 7 21 13 19 13 -6z m22 -72 c8 -16 7 -16 -10 -6 -13 8 -17 19 -14
33 4 15 7 16 10 6 3 -8 9 -23 14 -33z m38 -177 c0 -5 -5 -10 -11 -10 -5 0 -7
5 -4 10 3 6 8 10 11 10 2 0 4 -4 4 -10z m-480 -87 c0 -5 -5 -15 -10 -23 -8
-12 -10 -11 -10 8 0 12 5 22 10 22 6 0 10 -3 10 -7z m430 -29 c-13 -33 -13
-37 3 -28 7 5 7 1 -3 -12 -22 -29 -23 -30 -18 -14 3 8 1 23 -4 34 -7 12 -7 16
0 12 5 -3 12 3 15 14 3 11 8 20 11 20 3 0 1 -12 -4 -26z m-441 -46 c-1 -18 -5
-46 -9 -63 -6 -24 -8 -17 -9 33 0 35 3 62 9 62 6 0 9 -15 9 -32z m408 -40 c-3
-8 -6 -5 -6 6 -1 11 2 17 5 13 3 -3 4 -12 1 -19z m-413 -118 c1 -28 -2 -50 -6
-50 -5 0 -8 26 -8 57 0 31 3 53 7 50 4 -4 7 -30 7 -57z m433 8 c-3 -7 -5 -2
-5 12 0 14 2 19 5 13 2 -7 2 -19 0 -25z m-434 -165 c2 -35 0 -63 -5 -63 -4 0
-7 35 -7 78 1 85 6 80 12 -15z m450 80 c-7 -2 -13 -12 -13 -20 0 -9 -3 -14 -6
-10 -10 10 4 37 18 36 10 0 10 -2 1 -6z m-13 -133 c0 -5 -2 -10 -4 -10 -3 0
-8 5 -11 10 -3 6 -1 10 4 10 6 0 11 -4 11 -10z m25 -58 c-3 -4 -10 0 -15 8 -8
12 -10 10 -11 -10 -1 -18 -3 -20 -6 -7 -3 10 1 25 8 33 11 14 14 13 22 -1 5
-9 6 -19 2 -23z m-456 -34 c1 -10 -3 -18 -9 -18 -5 0 -10 17 -9 38 0 30 2 33
9 17 5 -11 9 -28 9 -37z m474 -30 c9 -6 9 -8 0 -8 -14 0 -33 32 -32 52 0 7 5
2 10 -12 6 -13 15 -28 22 -32z m-30 -24 c-4 -10 -9 -12 -15 -6 -12 12 -1 35
12 27 5 -3 6 -13 3 -21z m20 -70 c-7 -19 -11 -15 -17 21 -5 27 -4 28 9 12 7
-11 11 -25 8 -33z m-466 -51 c-3 -10 -5 -2 -5 17 0 19 2 27 5 18 2 -10 2 -26
0 -35z m438 -73 c3 -5 1 -10 -4 -10 -6 0 -11 5 -11 10 0 6 2 10 4 10 3 0 8 -4
11 -10z m-430 -20 c3 -5 1 -10 -4 -10 -6 0 -11 5 -11 10 0 6 2 10 4 10 3 0 8
-4 11 -10z m465 -21 c0 -11 -4 -18 -9 -14 -5 3 -11 -3 -13 -12 -3 -15 -5 -14
-10 5 -3 12 -2 20 3 16 5 -3 9 -1 9 5 0 5 -6 12 -12 14 -7 3 -3 6 10 6 16 1
22 -5 22 -20z m-473 -56 c-3 -10 -5 -4 -5 12 0 17 2 24 5 18 2 -7 2 -21 0 -30z
m501 -37 c-4 -30 -22 -26 -25 6 -1 20 2 25 13 21 8 -3 14 -15 12 -27z m-47 -9
c-10 -9 -11 -8 -5 6 3 10 9 15 12 12 3 -3 0 -11 -7 -18z m-4 -39 c-3 -8 -6 -5
-6 6 -1 11 2 17 5 13 3 -3 4 -12 1 -19z m-1 -60 c13 -25 12 -27 -6 -25 -17 1
-20 8 -19 42 0 22 3 33 6 25 3 -8 12 -27 19 -42z m1 -53 c0 -8 -4 -12 -9 -9
-5 3 -6 10 -3 15 9 13 12 11 12 -6z m-14 -100 c-3 -9 -8 -14 -10 -11 -3 3 -2
9 2 15 9 16 15 13 8 -4z m39 -353 c-16 -4 -34 17 -25 31 3 4 13 0 23 -10 14
-15 15 -19 2 -21z m811 -159 c7 -103 34 -240 57 -284 10 -17 3 -30 -51 -92
-83 -96 -193 -264 -275 -420 -38 -75 -71 -126 -78 -123 -60 26 -89 29 -137 17
-28 -7 -52 -12 -53 -10 -2 2 -6 32 -8 66 l-4 63 39 27 39 27 -6 55 c-4 31 -13
66 -22 78 -13 21 -12 31 6 105 25 102 32 120 86 233 23 50 58 105 77 124 37
35 308 240 318 241 3 0 9 -48 12 -107z m-1258 -73 c3 -5 1 -10 -4 -10 -6 0
-11 5 -11 10 0 6 2 10 4 10 3 0 8 -4 11 -10z m155 -30 c0 -5 -2 -10 -4 -10 -3
0 -8 5 -11 10 -3 6 -1 10 4 10 6 0 11 -4 11 -10z m27 -12 c-3 -8 -6 -5 -6 6
-1 11 2 17 5 13 3 -3 4 -12 1 -19z m4153 -126 c121 -98 283 -253 342 -330 37
-47 40 -55 29 -78 -16 -37 -14 -59 18 -164 46 -154 55 -170 90 -170 17 0 31
-3 31 -6 0 -17 -23 -44 -60 -69 -31 -21 -51 -48 -82 -112 -23 -45 -42 -82 -43
-81 -1 2 -19 50 -40 108 -44 122 -158 369 -224 485 -62 109 -178 288 -235 359
-25 33 -46 63 -46 68 0 4 15 30 33 58 38 58 25 63 187 -68z m-3930 98 c0 -5
-2 -10 -4 -10 -3 0 -8 5 -11 10 -3 6 -1 10 4 10 6 0 11 -4 11 -10z m-393 -32
c-3 -8 -6 -5 -6 6 -1 11 2 17 5 13 3 -3 4 -12 1 -19z m488 -58 c3 -5 1 -10 -4
-10 -6 0 -11 5 -11 10 0 6 2 10 4 10 3 0 8 -4 11 -10z m-45 -61 c0 -15 -18
-19 -23 -6 -3 8 1 14 9 14 8 0 14 -4 14 -8z m-313 -51 c-3 -8 -6 -5 -6 6 -1
11 2 17 5 13 3 -3 4 -12 1 -19z m-77 -123 c0 -7 -30 -13 -34 -7 -3 4 4 9 15 9
10 1 19 0 19 -2z m96 -57 c4 -7 4 -10 -1 -6 -4 4 -15 2 -24 -5 -14 -11 -14
-10 -2 6 16 20 18 21 27 5z m117 -8 c3 -11 1 -18 -4 -14 -5 3 -9 12 -9 20 0
20 7 17 13 -6z m-318 -60 c3 -5 1 -10 -4 -10 -6 0 -11 5 -11 10 0 6 2 10 4 10
3 0 8 -4 11 -10z m-8 -292 c-3 -8 -6 -5 -6 6 -1 11 2 17 5 13 3 -3 4 -12 1
-19z m420 -80 c-3 -7 -5 -2 -5 12 0 14 2 19 5 13 2 -7 2 -19 0 -25z m83 -58
c0 -5 -2 -10 -4 -10 -3 0 -8 5 -11 10 -3 6 -1 10 4 10 6 0 11 -4 11 -10z
m-1224 -243 c3 -2 20 -1 39 3 19 4 62 5 95 1 33 -4 62 -5 64 -3 13 12 98 8
111 -5 8 -8 15 -10 15 -4 0 6 7 11 16 11 9 0 12 -5 8 -12 -6 -10 -4 -10 7 0
22 20 75 15 92 -10 l16 -23 -6 24 c-5 21 -4 22 14 13 15 -8 23 -8 33 1 10 10
12 8 7 -5 -4 -11 -1 -18 6 -18 8 0 12 -11 11 -30 -1 -17 1 -43 5 -58 l8 -27 5
27 c3 15 1 25 -3 22 -5 -3 -9 0 -9 5 0 10 14 15 33 12 4 0 7 4 7 10 0 6 -9 8
-20 4 -11 -4 -20 -2 -20 4 0 6 7 11 15 11 9 0 18 6 21 14 4 9 14 13 27 9 12
-3 32 -5 45 -5 12 0 22 -4 22 -10 0 -5 5 -6 10 -3 6 3 10 1 10 -4 0 -6 -10
-11 -22 -11 -48 0 -61 -4 -66 -22 -2 -10 -10 -18 -17 -18 -7 0 -16 -7 -19 -16
-5 -14 -4 -15 9 -4 14 12 20 7 15 -15 -1 -5 10 1 24 14 14 14 26 29 26 35 0 5
-7 1 -16 -10 -14 -18 -15 -18 -4 4 6 12 15 20 21 17 16 -11 10 -61 -11 -80
-22 -20 -28 -8 -7 15 10 12 9 12 -5 1 -21 -16 -24 -47 -5 -57 6 -4 9 -4 5 1
-11 11 12 36 25 28 6 -4 7 -1 2 7 -6 9 -4 11 4 5 9 -5 10 -10 2 -18 -6 -6 -11
-21 -11 -33 0 -26 -25 -50 -35 -34 -5 8 -11 8 -21 -1 -11 -9 -14 -8 -14 4 0 9
-4 18 -9 21 -4 3 -6 -5 -4 -17 4 -20 11 -23 48 -23 39 0 44 3 58 33 10 22 11
33 3 34 -7 0 -7 2 1 5 7 3 9 12 6 20 -4 11 0 15 13 12 11 -2 19 3 18 10 -3 38
-5 43 -13 37 -6 -3 -15 5 -22 17 -6 13 -8 20 -4 15 11 -10 46 23 38 36 -3 6
-1 7 6 3 6 -4 9 -12 5 -17 -3 -5 0 -17 8 -26 8 -10 8 -14 1 -10 -6 4 -14 3
-17 -2 -4 -5 -2 -12 4 -16 16 -10 12 -40 -9 -59 -11 -10 -17 -25 -14 -37 6
-22 19 -25 26 -6 4 9 6 9 6 -1 1 -18 -29 -28 -39 -13 -5 9 -9 5 -13 -11 -4
-12 -2 -24 3 -26 6 -2 10 -8 10 -13 0 -6 -6 -7 -12 -3 -10 6 -10 4 0 -8 9 -11
10 -23 2 -42 -12 -32 -22 -34 -20 -3 4 49 1 56 -30 55 -19 -1 -30 -6 -30 -15
0 -9 -5 -11 -12 -7 -10 6 -10 4 -2 -7 13 -17 16 -59 4 -59 -5 0 -12 5 -16 12
-4 6 -3 8 4 4 12 -7 10 20 -3 31 -4 4 -5 3 -1 -4 10 -18 -34 -39 -45 -22 -13
22 -11 29 9 23 14 -5 15 -4 2 5 -13 9 -12 11 5 11 16 0 17 2 6 9 -9 6 -20 4
-30 -6 -19 -20 -25 -54 -8 -50 6 1 11 -6 9 -15 -2 -10 2 -18 8 -18 5 0 10 5
10 11 0 6 7 8 16 5 10 -4 13 -2 8 7 -5 7 -1 7 10 -2 13 -11 14 -16 4 -22 -10
-7 -9 -9 5 -9 9 0 17 -5 17 -11 0 -5 5 -7 10 -4 14 9 13 -8 -2 -23 -6 -6 -9
-14 -6 -17 8 -9 39 25 33 36 -4 5 -1 9 5 9 7 0 10 -6 7 -13 -3 -8 1 -14 8 -14
7 0 11 7 8 16 -3 11 -1 10 7 -2 9 -14 9 -22 1 -30 -6 -6 -11 -8 -11 -3 0 4 -8
0 -17 -10 -12 -11 -18 -13 -21 -5 -3 9 -8 9 -17 1 -10 -9 -13 -4 -11 20 3 36
-9 49 -17 19 -5 -19 -7 -19 -34 -6 -20 11 -34 12 -46 6 -9 -6 -17 -9 -18 -7
-7 31 -6 65 2 74 7 9 6 20 -2 36 -7 13 -12 27 -11 31 1 5 -2 6 -8 2 -5 -3 -10
-13 -10 -21 0 -8 -7 -14 -16 -14 -8 0 -12 4 -9 10 4 6 -1 7 -11 3 -14 -5 -13
-8 7 -19 20 -10 25 -9 36 5 10 14 11 14 8 -4 -2 -11 -4 -24 -4 -28 -1 -5 -5
-5 -11 -2 -5 3 -10 1 -10 -4 0 -6 5 -11 10 -11 6 0 10 -7 10 -16 0 -8 -4 -13
-9 -10 -5 3 -11 -1 -15 -9 -3 -8 -1 -17 4 -20 5 -3 6 -13 3 -23 -6 -15 -5 -15
10 -3 22 17 32 8 18 -16 -6 -10 -11 -13 -11 -8 0 17 -40 16 -40 -1 0 -18 -22
-14 -28 6 -3 7 0 10 5 7 5 -3 9 4 8 16 -1 12 3 25 9 30 8 5 6 10 -4 17 -8 5
-10 10 -4 10 7 0 14 7 18 15 4 12 2 13 -12 6 -14 -7 -21 -5 -30 10 -8 12 -23
19 -40 18 -15 0 -22 -3 -15 -5 8 -4 9 -13 4 -27 -4 -12 -6 -28 -4 -34 3 -7 -3
-13 -12 -13 -14 0 -16 -7 -13 -30 3 -17 1 -33 -4 -36 -9 -6 -43 24 -43 39 0 5
-9 15 -20 23 -18 13 -21 13 -32 -3 -7 -9 -13 -29 -13 -44 0 -23 -4 -27 -22
-24 -13 3 -24 9 -26 15 -2 5 -8 10 -13 10 -4 0 -6 -6 -3 -14 4 -11 -44 -13
-283 -12 l-288 1 -12 120 c-7 66 -19 176 -26 245 l-13 125 31 6 c36 7 474 4
481 -4z m884 3 c0 -5 -2 -10 -4 -10 -3 0 -8 5 -11 10 -3 6 -1 10 4 10 6 0 11
-4 11 -10z m-86 -165 c-4 -8 -8 -15 -10 -15 -2 0 -4 7 -4 15 0 8 4 15 10 15 5
0 7 -7 4 -15z m-18 -51 c-5 -19 -3 -22 11 -17 15 5 15 3 -2 -10 -16 -12 -17
-18 -7 -30 10 -12 10 -17 1 -23 -8 -5 -9 -3 -4 6 6 9 4 12 -6 8 -10 -4 -14 3
-14 22 0 16 3 32 7 36 4 4 3 12 -2 19 -7 8 -5 12 6 12 11 0 14 -7 10 -23z m44
-45 c0 -11 -4 -18 -10 -14 -5 3 -7 12 -3 20 7 21 13 19 13 -6z m-127 -4 c4 -8
3 -16 -1 -19 -4 -3 -9 4 -9 15 -2 23 3 25 10 4z m44 -57 c-3 -8 -6 -5 -6 6 -1
11 2 17 5 13 3 -3 4 -12 1 -19z m-31 -10 c4 -6 3 -8 -4 -4 -6 3 -13 2 -17 -4
-3 -5 -2 -10 3 -10 5 0 9 -7 9 -15 0 -10 -4 -12 -12 -5 -7 5 -14 7 -18 4 -3
-3 -4 2 -3 11 1 9 9 21 17 26 18 11 16 11 25 -3z m91 -13 c0 -8 -4 -12 -9 -9
-5 3 -6 10 -3 15 9 13 12 11 12 -6z m35 -10 c-2 -14 -8 -23 -12 -20 -10 6 -1
45 10 45 4 0 5 -11 2 -25z m-495 -10 c-4 -8 -2 -17 3 -20 6 -4 10 -11 10 -18
0 -6 -7 -1 -16 11 -8 12 -12 27 -9 32 9 15 18 12 12 -5z m403 -20 c0 -8 -7
-15 -15 -15 -26 0 -18 20 13 29 1 1 2 -6 2 -14z m8 -69 c-1 -13 -8 -23 -15
-23 -8 0 -9 5 -2 19 11 21 3 42 -13 32 -7 -4 -8 -2 -4 5 12 18 36 -6 34 -33z
m-518 -28 c0 -14 -38 -9 -44 7 -3 8 -1 15 5 15 6 0 7 6 3 13 -4 6 2 3 14 -7
12 -11 22 -23 22 -28z m270 38 c0 -2 -8 -10 -17 -17 -16 -13 -17 -12 -4 4 13
16 21 21 21 13z m-167 -29 c3 -8 -1 -14 -9 -14 -15 0 -18 9 -7 20 9 9 10 9 16
-6z m482 3 c3 -5 1 -10 -4 -10 -6 0 -11 5 -11 10 0 6 2 10 4 10 3 0 8 -4 11
-10z m-1225 -70 c13 -8 13 -10 -2 -10 -9 0 -18 -5 -20 -12 -2 -6 -9 -8 -16 -4
-13 8 -5 36 12 36 6 0 18 -5 26 -10z m202 -16 c4 -2 9 0 13 6 10 16 21 12 21
-9 0 -12 -4 -17 -11 -12 -5 4 -30 8 -55 9 -25 0 -56 5 -70 11 -19 8 -11 9 35
5 33 -3 63 -8 67 -10z m234 4 c-4 6 -2 12 3 12 14 0 14 -17 1 -25 -5 -3 -10
-14 -10 -24 0 -12 -9 -20 -23 -23 -15 -3 -24 0 -24 8 0 7 4 11 8 9 9 -6 20 21
12 29 -4 3 -18 7 -32 7 -21 1 -19 3 9 8 20 4 41 3 49 -3 11 -8 13 -8 7 2z
m114 8 c0 -11 -19 -15 -25 -6 -3 5 1 10 9 10 9 0 16 -2 16 -4z m100 -3 c-8 -3
-18 -10 -21 -15 -3 -5 -9 -3 -12 6 -5 12 0 16 21 15 16 0 21 -3 12 -6z m475
-23 c1 -10 -2 -17 -6 -14 -4 2 -7 13 -6 24 2 23 10 17 12 -10z m99 -12 c-6
-45 -14 -48 -14 -5 0 21 4 37 9 37 4 0 7 -14 5 -32z m-484 1 c0 -6 -4 -7 -10
-4 -5 3 -10 11 -10 16 0 6 5 7 10 4 6 -3 10 -11 10 -16z m122 -11 c-2 -10 -6
-18 -7 -18 -1 0 -5 8 -7 18 -3 11 0 19 7 19 7 0 10 -8 7 -19z m-889 -43 c4 -8
2 -17 -3 -20 -6 -4 -10 3 -10 14 0 25 6 27 13 6z m6037 -818 c0 -2 -12 -14
-27 -28 l-28 -24 24 28 c23 25 31 32 31 24z m133 -171 c421 -160 603 -281 873
-581 158 -176 369 -448 411 -530 9 -16 75 -127 148 -245 382 -622 605 -1136
605 -1398 0 -48 -40 -259 -64 -332 -76 -238 -167 -466 -254 -632 -44 -85 -61
-108 -77 -108 -11 1 -69 10 -130 20 -60 11 -153 27 -205 36 -172 28 -263 48
-249 57 2 1 18 9 34 18 77 43 115 160 115 353 0 167 -31 282 -122 458 -58 113
-228 348 -322 446 -136 143 -316 212 -496 192 -41 -5 -77 -7 -78 -5 -8 7 119
165 152 190 62 47 139 67 256 67 196 0 327 -53 494 -198 28 -24 52 -41 55 -38
9 8 -103 115 -173 165 -91 65 -197 98 -331 106 -206 12 -345 -58 -458 -228
-36 -55 -58 -79 -72 -79 -11 0 -63 -11 -115 -25 -52 -14 -101 -25 -107 -25
-19 0 -17 220 2 312 30 145 199 430 418 704 111 139 133 172 122 182 -18 18
-254 -267 -360 -433 -123 -194 -183 -311 -209 -412 -19 -72 -25 -213 -12 -299
l8 -62 -48 -15 c-68 -21 -178 -43 -313 -63 -191 -27 -435 1 -726 83 -109 31
-146 37 -230 37 -114 1 -173 -10 -335 -66 -250 -84 -352 -159 -432 -314 -68
-132 -82 -187 -82 -334 -1 -120 0 -128 32 -202 38 -88 77 -150 136 -215 39
-42 46 -46 99 -51 45 -3 63 0 92 17 20 11 38 21 40 21 4 0 45 -83 45 -91 0 -7
-150 14 -340 46 -80 13 -185 29 -235 35 -49 6 -113 15 -141 21 l-50 10 -17 57
-17 57 4 -58 c4 -46 2 -58 -8 -54 -8 3 -35 9 -61 12 -25 4 -49 13 -52 21 -8
21 163 436 256 621 76 152 176 310 238 377 54 59 193 241 250 327 15 24 31 46
36 47 16 7 36 74 31 101 -5 23 3 40 39 87 25 32 73 84 107 114 34 30 63 57 65
59 2 2 34 -17 72 -43 102 -68 188 -97 308 -103 90 -5 108 -3 175 21 41 14 79
31 85 37 5 5 -10 2 -35 -7 -69 -25 -233 -30 -306 -9 -92 26 -191 77 -284 143
-97 70 -87 69 -250 24 -119 -34 -81 -43 49 -13 113 27 123 26 156 -6 l27 -27
-39 -17 c-45 -19 -128 -105 -149 -154 -14 -35 -28 -44 -39 -25 -15 24 -47 5
-118 -69 -41 -43 -121 -137 -177 -207 -56 -71 -113 -141 -126 -155 l-24 -26
20 -18 c11 -10 20 -22 20 -28 0 -11 -133 -188 -137 -183 -5 4 22 406 44 664
l16 203 231 153 c127 85 316 204 420 266 103 62 225 138 270 169 273 193 339
240 406 292 41 32 109 79 150 105 258 163 315 201 405 277 131 110 219 204
284 305 30 45 56 82 59 82 2 0 2 -71 0 -157 -7 -224 -33 -316 -171 -603 -141
-295 -205 -464 -287 -758 -61 -216 -74 -252 -89 -252 -33 0 -287 237 -386 360
-58 73 -115 174 -115 206 0 12 47 91 103 175 105 155 132 199 123 199 -7 0
-117 -137 -176 -220 -68 -95 -93 -152 -85 -190 15 -68 193 -285 357 -437 136
-126 194 -154 222 -111 8 12 33 93 56 178 85 323 191 602 319 840 126 234 188
505 163 716 -9 76 -8 100 1 106 7 4 13 8 14 8 1 0 89 -33 196 -74z m-4212
-162 c38 -11 78 -32 115 -63 55 -44 129 -129 121 -138 -3 -2 -20 5 -38 16 -23
13 -63 21 -119 26 -72 5 -100 3 -185 -19 -118 -31 -281 -108 -347 -166 -46
-40 -59 -60 -39 -60 6 0 52 27 103 60 50 33 122 71 158 85 275 104 505 76 491
-61 -2 -19 -62 -42 -146 -54 -160 -24 -303 -84 -454 -191 -41 -30 -50 -40 -37
-45 10 -4 58 18 128 59 162 94 252 127 391 146 42 6 92 17 111 25 33 14 36 13
82 -17 68 -45 76 -64 70 -174 -9 -188 -98 -297 -281 -348 -33 -9 -70 -21 -82
-27 -38 -19 -60 -91 -73 -238 -15 -182 -38 -360 -56 -439 -32 -138 -118 -290
-206 -365 -40 -35 -41 -36 -16 -36 36 0 121 90 179 189 l45 79 43 -162 c81
-306 88 -323 114 -297 7 7 3 25 -15 63 -14 29 -38 94 -53 143 -15 50 -40 132
-56 183 l-29 92 20 73 c25 89 46 240 65 462 17 206 19 209 131 246 104 34 155
61 201 106 l38 38 -3 -297 c-4 -321 -2 -338 46 -338 32 0 194 89 370 202 139
90 140 91 148 130 22 98 244 179 325 119 32 -23 142 -127 341 -321 141 -137
140 -134 113 -235 -24 -94 -53 -459 -57 -720 l-2 -130 -84 -155 c-127 -234
-184 -351 -242 -500 -30 -74 -54 -136 -54 -136 -1 -1 -168 27 -302 51 -31 5
-32 7 -59 123 -55 235 -135 559 -155 627 -20 67 -20 68 -15 20 16 -127 28
-196 74 -423 27 -134 59 -263 71 -288 12 -25 21 -47 19 -49 -2 -1 -80 12 -174
30 -93 18 -233 43 -310 55 -77 12 -158 25 -180 29 l-40 7 4 194 c4 253 -25
501 -74 625 l-15 40 4 -35 c3 -19 12 -66 20 -105 37 -170 46 -408 24 -607
l-12 -107 -45 5 c-215 26 -624 99 -741 134 l-65 19 3 154 c4 188 -10 359 -33
393 -22 35 -90 81 -147 102 -57 20 -57 18 -28 176 11 60 20 113 20 118 0 4 4
8 9 8 5 0 15 -25 21 -56 7 -31 18 -73 26 -93 l14 -36 -6 55 c-3 30 -12 83 -20
117 -20 90 -42 253 -49 363 -15 244 -15 297 -5 434 14 189 39 325 85 455 47
134 165 370 211 420 19 22 77 67 129 100 217 141 329 173 466 135z m408 -366
c36 -22 123 -66 195 -98 72 -32 165 -74 206 -93 41 -19 98 -42 125 -51 99 -32
105 -37 135 -95 15 -31 53 -89 84 -130 31 -41 56 -78 56 -82 0 -4 -24 -10 -52
-14 -118 -15 -183 -55 -275 -168 -30 -38 -87 -92 -126 -121 -103 -75 -308
-197 -326 -194 -23 5 -28 71 -31 374 -2 225 0 266 14 293 19 35 33 233 22 293
-8 42 -50 88 -81 88 -15 0 -26 11 -38 35 -23 47 -21 53 6 26 12 -13 51 -41 86
-63z m-1330 -1688 c-18 -99 -27 -129 -37 -125 -8 3 -23 5 -35 5 -44 0 -49 12
-28 71 10 30 27 68 37 85 23 37 78 102 83 98 2 -2 -7 -62 -20 -134z m2924 113
c-7 -3 -10 -12 -7 -21 5 -15 4 -15 -6 1 -13 20 -4 41 13 30 8 -5 8 -8 0 -10z
m-68 -102 c10 -25 -4 -25 -24 0 -11 13 -20 27 -21 32 0 11 39 -16 45 -32z
m2775 -96 c169 -61 308 -186 455 -410 119 -182 208 -417 222 -584 11 -135 -27
-311 -78 -357 -29 -26 -99 -19 -256 26 -133 39 -196 53 -313 70 -30 5 -122 21
-205 36 -120 22 -176 27 -284 26 -183 -2 -271 -19 -569 -106 -141 -41 -242
-55 -427 -57 -105 -2 -136 1 -162 14 -58 30 -277 71 -501 93 -46 4 -72 11 -69
18 6 21 101 77 159 94 67 20 75 32 18 32 -64 0 -131 -28 -180 -76 -25 -24 -51
-44 -58 -44 -36 0 -75 34 -99 87 -22 48 -25 64 -19 122 10 108 63 237 140 340
33 44 33 55 -1 46 -45 -10 -125 -70 -163 -120 -15 -19 -15 -19 12 -2 24 15 58
23 58 13 0 -2 -13 -35 -29 -73 -30 -73 -61 -193 -61 -237 0 -43 -72 -85 -125
-72 -64 16 -161 146 -203 273 -62 190 0 461 138 603 55 56 170 118 311 166
223 76 357 83 546 30 219 -62 418 -96 563 -96 130 0 333 31 534 82 367 93 522
108 646 63z m-5947 -25 c65 -6 143 -17 175 -24 31 -8 88 -22 126 -30 120 -27
188 -71 201 -131 7 -26 6 -28 -6 -13 -8 9 -32 26 -54 37 -54 27 -224 70 -249
63 -16 -5 -9 -9 29 -19 187 -51 245 -78 245 -118 0 -78 -253 -120 -500 -84
-225 33 -573 23 -748 -22 -41 -10 -94 -19 -118 -19 -43 0 -150 22 -201 41 -54
20 -133 73 -133 90 0 94 368 223 675 236 66 3 122 7 125 10 6 6 285 -5 433
-17z m-2243 -215 c129 -19 459 -71 600 -95 293 -49 355 -62 362 -73 4 -7 8
-38 8 -69 0 -49 -3 -58 -17 -58 -34 -1 -378 31 -438 40 -91 14 -224 38 -385
70 -80 16 -182 34 -227 41 l-83 11 0 79 0 79 43 -5 c23 -4 85 -12 137 -20z
m1117 -124 c83 -42 162 -60 336 -76 177 -18 560 -20 739 -5 259 22 474 72 536
125 l29 24 7 -52 c3 -28 6 -91 6 -139 0 -80 -2 -89 -23 -102 -24 -16 -256 -76
-293 -76 -33 0 -53 -10 -65 -33 -10 -17 -9 -19 7 -13 11 4 80 18 154 31 74 13
147 27 163 31 21 5 27 3 27 -10 0 -9 -3 -16 -7 -17 -5 0 -15 -2 -23 -5 -50
-13 -229 -44 -271 -46 -59 -3 -56 3 -64 -153 -5 -104 -11 -169 -21 -225 -2
-14 -6 -45 -10 -70 -3 -25 -8 -56 -10 -70 -3 -14 -7 -36 -8 -50 -2 -14 -8 -50
-14 -80 -6 -30 -13 -71 -15 -90 -5 -40 -40 -115 -68 -145 -10 -11 -31 -35 -45
-53 -32 -40 -207 -158 -249 -168 -16 -4 -41 -14 -54 -22 -28 -19 -217 -20
-296 -2 -100 22 -183 51 -209 71 l-26 20 73 37 c60 31 72 41 72 62 0 37 -37
38 -95 2 l-48 -30 -31 69 c-44 98 -155 366 -175 419 -30 84 -95 330 -115 433
-21 114 -48 435 -38 461 6 16 9 16 36 -3 16 -12 56 -34 88 -50z m-134 -371 c6
-24 5 -25 -33 -22 -35 4 -38 6 -30 23 12 22 43 40 51 31 4 -4 9 -18 12 -32z
m1869 -25 c48 -21 530 -107 606 -107 l23 0 -21 -23 c-12 -13 -31 -25 -43 -28
-12 -3 -47 -15 -77 -26 -85 -31 -195 -25 -245 14 -20 15 -20 15 -1 30 26 20
85 18 171 -4 59 -16 73 -17 89 -5 15 10 16 14 5 18 -28 10 -436 89 -506 99
-67 9 -86 21 -66 40 10 11 29 8 65 -8z m-1879 -47 c9 -7 39 -79 66 -160 l49
-147 -101 -24 -102 -24 -7 21 c-10 35 -9 190 3 271 l11 75 32 0 c18 0 40 -6
49 -12z m1967 -24 c73 -16 76 -17 108 -28 31 -10 16 -28 -38 -46 -33 -11 -55
-11 -124 -1 -104 16 -125 28 -108 65 10 22 18 26 54 26 24 -1 72 -7 108 -16z
m740 -68 c92 -23 94 -24 65 -36 -24 -9 -35 -9 -55 3 -14 8 -42 20 -62 26 -21
7 -40 17 -43 22 -4 5 -5 9 -3 9 2 -1 46 -11 98 -24z m-822 -27 c48 -11 95 -24
104 -29 11 -6 33 -4 63 4 39 12 50 12 72 1 15 -8 71 -22 125 -31 79 -14 98
-21 98 -35 0 -33 -26 -42 -103 -35 -99 10 -203 33 -231 51 -18 12 -33 13 -76
5 -52 -10 -136 -5 -158 9 -8 5 -9 18 -1 44 5 20 12 37 15 37 3 0 44 -9 92 -21z
m737 -4 c33 -9 61 -18 63 -20 3 -2 -1 -18 -8 -34 l-12 -31 -77 7 c-111 9 -159
37 -125 74 21 24 77 25 159 4z m335 -21 c52 -8 134 -19 182 -25 48 -5 98 -13
110 -18 21 -8 19 -10 -17 -16 -50 -10 -72 -25 -97 -66 -24 -40 -41 -27 -44 33
-1 24 -2 44 -3 45 -1 1 -21 -6 -44 -16 -24 -11 -78 -27 -120 -36 -42 -9 -95
-29 -119 -44 -67 -42 -77 -44 -90 -17 -13 29 -3 89 17 106 11 9 25 8 62 -3 26
-9 73 -18 103 -21 53 -6 52 -5 -28 17 -45 13 -85 27 -90 31 -10 11 36 46 62
46 11 0 64 -7 116 -16z m5744 -16 c3 -18 10 -76 16 -128 16 -127 57 -371 75
-443 8 -32 15 -62 15 -67 0 -4 -24 -2 -52 5 -29 7 -102 21 -163 30 -151 23
-155 24 -155 39 0 8 29 69 64 137 69 134 149 329 168 409 13 58 25 64 32 18z
m-6179 -59 c39 -6 89 -20 113 -30 37 -16 42 -22 42 -50 l0 -32 -57 6 c-196 22
-239 29 -253 42 -12 13 -10 19 20 50 19 19 41 33 49 31 9 -2 48 -10 86 -17z
m895 9 c41 -5 129 -20 195 -33 147 -29 419 -78 580 -104 345 -56 602 -92 973
-137 256 -30 382 -52 408 -69 14 -9 22 -21 18 -25 -5 -5 -61 -25 -124 -45
-145 -47 -573 -208 -665 -250 -16 -8 -84 -37 -150 -65 -66 -28 -142 -63 -170
-78 -50 -27 -58 -47 -18 -47 32 1 19 -11 -34 -29 -75 -26 -211 -29 -433 -12
-377 30 -626 60 -930 112 -371 64 -447 76 -615 99 -176 23 -271 33 -525 55
-199 17 -321 32 -318 39 2 4 16 41 32 84 32 85 39 89 97 58 20 -11 61 -27 90
-35 62 -18 294 -52 419 -61 213 -15 404 -39 635 -80 305 -53 421 -71 545 -85
52 -6 120 -15 150 -21 30 -5 80 -11 110 -14 102 -8 255 -26 310 -35 30 -6 89
-10 130 -9 41 0 107 0 145 -1 46 -1 67 2 60 9 -8 8 -214 31 -505 57 -36 3
-132 14 -215 24 -82 11 -170 22 -195 25 -25 2 -110 16 -190 29 -447 77 -629
101 -1095 146 -135 14 -350 52 -410 73 -43 15 -43 16 -24 90 7 25 15 37 23 34
7 -3 76 -15 152 -27 77 -11 191 -30 254 -40 225 -38 336 -52 410 -54 64 -1 79
2 106 22 24 18 47 24 100 27 38 2 87 11 109 21 62 26 179 30 244 7 30 -10 56
-24 59 -31 6 -18 -47 -61 -91 -73 -31 -8 -62 -7 -134 5 -110 19 -125 19 -99 5
31 -19 128 -38 189 -39 46 0 70 7 118 31 125 65 92 102 -141 157 l-45 11 41
-5 c39 -5 43 -3 76 37 l35 42 82 -17 c45 -9 91 -16 104 -16 22 -1 22 -1 2 -16
-15 -12 -34 -14 -81 -10 -49 5 -63 3 -67 -8 -5 -11 7 -16 51 -22 32 -4 72 -17
92 -30 51 -33 85 -39 133 -21 23 8 69 23 102 32 140 41 185 57 180 66 -4 5 0
7 7 5 7 -3 54 10 103 27 71 25 90 36 90 51 0 15 -12 23 -50 33 -81 21 -235 46
-302 49 -41 1 -74 9 -95 22 -18 10 -54 25 -80 32 -51 13 -81 36 -50 37 9 1 51
-3 92 -9z m-1462 -17 c12 -6 22 -20 22 -31 0 -31 -30 -40 -101 -30 -35 5 -67
10 -71 10 -13 0 -38 32 -38 49 0 16 10 18 83 16 45 -1 92 -7 105 -14z m1393
-31 c38 -11 71 -25 75 -31 3 -6 -3 -20 -15 -32 -20 -20 -25 -21 -99 -10 -91
14 -132 30 -132 53 0 45 62 52 171 20z m-1140 -20 c41 -11 84 -20 96 -20 34 0
38 -20 10 -47 l-24 -25 -109 12 c-110 11 -194 28 -194 38 0 3 12 21 26 40 26
33 29 34 74 28 27 -4 81 -15 121 -26z m852 -17 c43 -19 45 -36 6 -66 -26 -19
-29 -19 -108 -3 -161 33 -174 58 -41 82 70 13 85 11 143 -13z m-1225 -40 c-11
-14 -2 -53 13 -53 5 0 14 11 18 24 14 36 74 40 156 10 36 -13 86 -24 111 -24
48 0 114 -23 114 -39 0 -5 -7 -17 -16 -26 -14 -13 -30 -15 -88 -10 -102 9
-196 24 -218 36 -10 5 -23 7 -28 4 -14 -8 -160 25 -160 36 0 5 6 9 13 9 8 0
24 11 37 25 l23 25 -31 0 c-20 0 -32 5 -32 13 0 11 10 10 49 -2 36 -12 46 -19
39 -28z m1820 8 c48 -11 102 -21 121 -23 33 -3 62 -30 48 -44 -6 -7 -181 26
-261 50 -47 13 -60 36 -22 36 15 0 66 -9 114 -19z m-1154 -11 c39 -6 72 -13
75 -15 2 -3 -1 -17 -8 -31 -12 -26 -12 -26 -99 -20 -110 8 -122 10 -122 14 0
1 7 16 15 32 18 34 29 36 139 20z m746 -5 c19 -4 55 -16 78 -27 43 -19 44 -20
25 -40 -16 -18 -26 -20 -83 -15 -78 7 -140 24 -140 38 0 19 50 60 68 55 9 -2
33 -8 52 -11z m-375 -30 c119 -28 145 -35 145 -45 0 -4 -23 -16 -51 -25 -39
-13 -68 -16 -127 -11 -74 7 -170 21 -221 32 -29 6 -21 16 44 54 51 30 63 29
210 -5z m661 10 c27 -8 61 -15 75 -15 32 0 129 -30 129 -40 0 -4 -33 -16 -73
-27 -81 -22 -172 -18 -242 11 -45 19 -44 41 5 67 42 23 44 23 106 4z m-3393
-69 c-3 -4 -1 -11 4 -15 5 -3 22 -40 38 -81 15 -41 33 -88 41 -105 24 -56 44
-107 44 -114 -1 -3 -12 8 -27 24 -24 28 -25 29 -9 3 18 -30 20 -39 9 -35 -5 1
-8 -2 -8 -8 0 -9 -57 -23 -110 -27 -11 -1 -22 -4 -25 -7 -28 -32 -50 -42 -68
-32 -41 22 -87 156 -112 328 -14 102 -14 103 18 103 16 0 52 7 82 16 29 8 61
13 71 11 11 -3 19 0 19 6 1 7 9 -4 19 -23 11 -19 17 -39 14 -44z m2282 5 c33
-6 137 -23 230 -37 94 -14 180 -28 192 -31 13 -3 37 0 55 6 20 7 35 8 41 2 6
-6 -5 -12 -29 -16 -22 -4 -61 -13 -89 -20 -27 -8 -87 -22 -133 -31 -63 -14
-81 -22 -77 -33 5 -12 -10 -13 -94 -8 -55 4 -132 14 -171 22 -39 8 -86 15
-104 15 -32 0 -518 78 -524 85 -2 1 0 14 4 29 7 30 21 32 90 11 27 -8 126 -28
220 -45 93 -16 195 -36 225 -44 29 -8 91 -17 137 -20 46 -4 94 -11 107 -16 14
-6 25 -6 25 -1 0 9 -24 15 -224 59 l-79 17 48 37 c31 24 55 36 69 34 12 -3 48
-9 81 -15z m1022 -52 c46 -20 47 -21 28 -35 -38 -28 -87 -36 -130 -22 -47 15
-54 45 -15 65 35 18 61 16 117 -8z m-3199 -304 c-3 -3 -9 2 -12 12 -6 14 -5
15 5 6 7 -7 10 -15 7 -18z m32 15 c0 -5 -5 -10 -11 -10 -5 0 -7 5 -4 10 3 6 8
10 11 10 2 0 4 -4 4 -10z m7930 -199 c22 -12 42 -16 55 -11 11 4 33 10 49 14
23 6 27 4 23 -9 -6 -14 -3 -14 22 -1 27 15 65 12 87 -6 6 -4 19 -6 28 -2 45
17 146 -35 146 -76 0 -25 -18 -35 -36 -19 -11 9 -18 9 -26 1 -17 -17 -55 -15
-62 4 -9 23 -7 24 58 25 57 2 57 2 39 21 -15 15 -25 17 -44 10 -35 -13 -466 1
-481 16 -7 7 -21 12 -32 12 -53 0 29 24 129 39 6 0 26 -7 45 -18z m-452 -18
c-54 -2 -142 -2 -195 0 -54 1 -10 3 97 3 107 0 151 -2 98 -3z m230 0 c-10 -2
-26 -2 -35 0 -10 3 -2 5 17 5 19 0 27 -2 18 -5z m-248 -31 l295 -7 3 -36 c3
-35 5 -36 60 -50 79 -19 419 -19 527 0 54 10 72 17 57 20 -13 3 -23 9 -23 14
1 4 1 12 1 17 0 13 81 13 156 -1 32 -6 96 -28 140 -49 149 -69 253 -163 306
-276 34 -72 32 -110 -5 -119 -92 -21 -657 -92 -751 -94 -44 -1 -83 -4 -87 -7
-4 -2 -16 15 -27 38 -26 59 -101 156 -152 196 -96 78 -327 159 -546 191 -225
34 -625 42 -814 17 -58 -8 -107 -13 -108 -11 -8 8 99 54 203 88 95 31 237 65
340 80 17 3 53 3 80 0 28 -3 183 -8 345 -11z m470 -37 c19 -1 43 -3 53 -4 10
0 17 -9 17 -21 0 -17 -7 -20 -40 -20 -31 0 -40 4 -40 17 0 15 -2 15 -14 -2
-12 -17 -17 -18 -40 -7 -15 7 -35 12 -44 12 -25 0 -46 16 -38 29 5 7 26 9 59
5 29 -3 68 -7 87 -9z m170 -25 c10 -19 8 -20 -34 -20 -44 0 -63 11 -51 30 12
19 73 12 85 -10z m88 8 c21 -21 13 -28 -28 -28 -33 0 -40 3 -40 20 0 15 7 20
28 20 15 0 33 -5 40 -12z m-1763 -115 c-33 -36 -38 -56 -30 -109 8 -54 38 -91
102 -124 26 -14 50 -28 51 -32 2 -5 15 -8 28 -8 13 0 32 -4 42 -9 9 -6 63 -20
119 -32 56 -12 101 -25 99 -28 -2 -3 14 -7 36 -8 21 -2 47 -7 56 -12 11 -7
-101 -10 -328 -9 -190 1 -389 -2 -443 -6 -108 -9 -225 -34 -274 -60 -40 -20
-43 -20 -38 4 4 22 24 60 25 47 0 -5 5 -5 11 -1 8 5 8 9 -1 14 -22 14 8 75 71
144 44 47 84 79 145 112 48 26 89 42 96 38 7 -4 10 -4 6 1 -10 10 98 61 169
79 30 8 58 17 61 20 3 3 9 6 14 6 5 0 -3 -12 -17 -27z m869 -8 c423 -50 678
-165 779 -353 47 -87 42 -86 -393 58 -410 137 -722 204 -1035 225 -180 11
-215 17 -215 31 0 8 6 17 14 20 85 33 629 45 850 19z"/>
<path d="M2690 6701 c0 -6 -9 -8 -20 -6 -11 2 -18 0 -15 -5 7 -12 38 -6 43 8
2 7 1 12 -2 12 -3 0 -6 -4 -6 -9z"/>
<path d="M2950 6629 c0 -5 5 -7 10 -4 6 3 10 8 10 11 0 2 -4 4 -10 4 -5 0 -10
-5 -10 -11z"/>
<path d="M2755 6539 c-4 -6 -5 -12 -2 -15 2 -3 7 2 10 11 7 17 1 20 -8 4z"/>
<path d="M2708 6477 c-3 -19 -2 -25 4 -19 6 6 8 18 6 28 -3 14 -5 12 -10 -9z"/>
<path d="M2742 6464 c-7 -8 -8 -14 -3 -14 10 0 25 19 20 25 -2 1 -10 -3 -17
-11z"/>
<path d="M2782 6471 c-11 -7 -11 -9 2 -14 10 -4 16 -1 16 8 0 17 -1 17 -18 6z"/>
<path d="M2446 6422 c-7 -12 12 -38 21 -28 4 5 2 11 -5 13 -6 3 -10 9 -6 14 3
5 3 9 0 9 -3 0 -7 -4 -10 -8z"/>
<path d="M2552 6360 c-7 -11 -8 -20 -3 -20 9 0 24 30 18 36 -1 2 -8 -6 -15
-16z"/>
<path d="M2496 6357 c3 -10 9 -15 12 -12 3 3 0 11 -7 18 -10 9 -11 8 -5 -6z"/>
<path d="M2748 6364 c-9 -16 6 -54 19 -46 8 5 8 13 -1 31 -7 13 -15 20 -18 15z"/>
<path d="M2456 6335 c4 -8 8 -15 10 -15 2 0 4 7 4 15 0 8 -4 15 -10 15 -5 0
-7 -7 -4 -15z"/>
<path d="M2801 6332 c-12 -23 -2 -35 18 -23 10 6 11 14 3 26 -9 17 -10 17 -21
-3z"/>
<path d="M2530 6315 c-11 -13 -15 -13 -21 -3 -6 8 -9 9 -9 2 0 -6 7 -17 16
-24 12 -11 18 -10 32 3 11 12 13 20 6 27 -8 8 -15 6 -24 -5z"/>
<path d="M2317 6284 c-3 -3 -3 -12 0 -20 4 -10 0 -13 -13 -8 -16 5 -16 4 -4
-5 20 -15 23 -14 37 9 11 16 10 18 -4 13 -11 -4 -14 -3 -9 5 8 13 3 16 -7 6z"/>
<path d="M7587 3963 c-32 -62 -56 -226 -64 -433 -5 -136 7 -284 25 -302 4 -4
8 79 8 185 2 203 26 445 50 503 27 63 10 104 -19 47z"/>
<path d="M8950 3480 c-96 -13 -191 -40 -217 -60 l-26 -20 39 0 c22 0 82 7 134
15 125 19 329 19 422 0 40 -9 107 -32 148 -52 41 -21 80 -39 85 -41 6 -3 -8
14 -30 37 -99 104 -323 152 -555 121z"/>
<path d="M8805 3293 c-338 -73 -602 -161 -707 -236 -82 -58 -91 -68 -80 -98
l9 -24 7 22 c17 54 143 123 341 188 140 46 401 113 477 122 70 8 161 -13 263
-62 127 -60 226 -132 375 -274 72 -67 137 -124 145 -125 8 -1 24 -11 36 -22
52 -45 -2 21 -109 135 -213 227 -488 383 -670 380 -37 -1 -76 -3 -87 -6z"/>
<path d="M9650 2506 c0 -11 22 -105 49 -210 56 -215 101 -437 101 -495 0 -46
15 -61 36 -35 30 39 -3 219 -91 490 -71 220 -94 281 -95 250z"/>
<path d="M9280 2021 c0 -5 7 -28 15 -51 8 -23 13 -46 10 -51 -3 -4 1 -36 9
-71 22 -98 35 -184 46 -299 5 -58 11 -112 14 -120 3 -7 10 -33 16 -57 14 -55
35 -46 25 12 -3 22 -13 97 -20 166 -8 69 -22 159 -31 200 -9 41 -22 109 -28
150 -7 41 -20 87 -30 103 -19 28 -26 33 -26 18z"/>
<path d="M5392 1877 l-32 -52 35 37 c19 21 35 45 35 53 0 21 -1 20 -38 -38z"/>
<path d="M5140 3546 c0 -2 29 -22 64 -45 73 -48 178 -93 157 -67 -7 8 -23 18
-34 22 -12 4 -57 27 -101 50 -78 44 -86 47 -86 40z"/>
<path d="M2991 2835 c1 -19 18 -51 18 -35 0 8 -4 22 -9 30 -5 8 -9 11 -9 5z"/>
<path d="M1550 2475 c0 -14 4 -25 9 -25 4 0 6 11 3 25 -2 14 -6 25 -8 25 -2 0
-4 -11 -4 -25z"/>
<path d="M5408 1564 c-3 -3 -20 -7 -36 -9 -17 -2 -42 -11 -56 -20 -79 -52
-462 -175 -544 -175 -23 0 -42 -4 -42 -9 0 -5 -15 -12 -32 -16 -59 -12 -128
-36 -128 -46 0 -15 57 -10 112 11 29 11 96 27 148 35 52 9 123 22 157 31 59
15 63 14 102 -5 22 -12 47 -21 54 -21 9 0 1 -14 -20 -36 -35 -37 -37 -62 -9
-92 7 -7 86 -26 177 -42 90 -16 181 -34 203 -40 69 -21 252 13 376 69 36 16
99 39 140 51 87 26 309 115 323 129 27 27 -78 76 -123 58 -23 -9 -24 -10 -5
-16 36 -11 58 -28 51 -40 -10 -16 -75 -47 -116 -56 -19 -4 -75 -23 -123 -42
-98 -37 -160 -38 -192 -3 -16 17 -13 20 47 48 35 17 112 44 172 61 60 17 112
34 115 37 3 3 -7 17 -22 30 -22 19 -39 24 -82 24 -55 0 -88 7 -81 19 2 3 -17
5 -42 3 -54 -4 -217 19 -347 47 -88 20 -166 26 -177 15z m216 -48 c37 -15 38
-17 24 -38 -26 -40 -74 -44 -198 -18 -60 13 -110 27 -110 31 0 4 12 17 28 29
25 20 36 22 122 18 56 -3 111 -12 134 -22z m316 -57 c52 -11 98 -23 103 -28
31 -31 -211 -50 -300 -23 -48 14 -51 21 -27 58 16 23 21 25 73 19 31 -4 99
-15 151 -26z m-630 6 c7 -8 25 -15 41 -15 15 0 38 -4 51 -9 13 -6 40 -12 61
-16 20 -3 37 -10 37 -14 0 -11 -59 -20 -66 -10 -6 10 -124 7 -124 -3 0 -4 28
-8 63 -10 l62 -3 -65 -16 c-69 -18 -184 -13 -244 10 -43 17 -20 38 25 22 40
-14 157 -15 143 -1 -5 5 -43 10 -84 12 l-75 3 67 23 c37 13 70 28 73 33 9 13
21 11 35 -6z m412 -77 c37 -12 68 -25 68 -28 0 -15 -169 -59 -230 -61 -62 -1
-135 8 -154 19 -5 3 27 17 70 32 43 15 93 34 109 43 40 22 56 21 137 -5z
m-397 -93 c34 -10 53 -11 61 -4 14 12 96 -29 91 -45 -7 -21 -55 -46 -100 -52
-50 -7 -214 13 -223 27 -7 12 23 66 43 78 25 15 72 13 128 -4z m473 -50 l27
-24 -36 -15 c-43 -18 -224 -56 -267 -56 -36 0 -62 9 -62 20 0 5 28 29 63 54
l62 45 93 0 c83 -1 96 -3 120 -24z"/>
<path d="M4886 1261 c-4 -6 -32 -8 -71 -4 -44 4 -65 2 -65 -5 0 -18 16 -23
141 -39 l121 -15 25 25 25 24 -59 7 c-32 4 -70 9 -85 12 -14 3 -29 1 -32 -5z"/>
<path d="M7950 661 c0 -6 4 -13 10 -16 6 -3 7 1 4 9 -7 18 -14 21 -14 7z"/>
<path d="M5716 10753 c-19 -27 -54 -82 -77 -123 -23 -41 -64 -113 -91 -159
-27 -46 -47 -85 -45 -87 2 -2 52 69 112 158 59 90 123 182 141 205 40 48 41
53 14 53 -12 0 -33 -18 -54 -47z"/>
<path d="M9148 10673 c2 -70 8 -133 13 -139 7 -8 6 -14 -1 -19 -12 -7 -10
-1118 3 -1131 4 -4 10 -4 15 0 8 8 14 1331 6 1384 -3 22 -10 32 -22 32 -15 0
-17 -13 -14 -127z"/>
<path d="M9322 10730 l3 -71 350 2 c193 1 409 3 480 4 72 2 174 5 228 6 l97 2
0 64 c0 49 -3 63 -15 63 -11 0 -15 -12 -15 -50 l0 -50 -352 0 c-194 0 -442 -3
-550 -6 l-198 -4 0 55 c0 43 -3 55 -16 55 -13 0 -15 -12 -12 -70z"/>
<path d="M8225 10621 c-44 -16 -143 -56 -220 -88 -77 -33 -225 -88 -330 -123
-104 -34 -224 -76 -265 -92 -150 -59 -348 -174 -435 -252 l-40 -37 70 42 c246
147 352 195 695 309 135 46 319 115 410 155 220 96 233 100 281 86 69 -21 112
-113 134 -285 l14 -111 -3 132 c-2 122 -5 135 -32 190 -54 108 -128 128 -279
74z"/>
<path d="M8335 10590 c-18 -20 -17 -20 11 -19 16 1 40 4 54 9 l25 7 -28 12
c-38 15 -41 14 -62 -9z"/>
<path d="M9323 10523 c-7 -3 -13 -11 -13 -19 0 -12 88 -14 590 -14 579 0 590
0 590 20 0 19 -11 19 -577 18 -318 0 -584 -2 -590 -5z"/>
<path d="M8275 10502 c-32 -20 -137 -141 -220 -255 -36 -48 -74 -84 -135 -126
-126 -87 -123 -86 -331 -126 -220 -44 -392 -144 -570 -333 -156 -166 -322
-445 -333 -562 -5 -55 -5 -55 82 113 109 210 188 323 322 458 163 163 283 231
531 299 59 16 125 36 148 43 105 37 244 151 394 326 120 139 190 181 217 132
15 -28 12 -164 -4 -251 -14 -72 -41 -168 -85 -310 -11 -35 -19 -66 -17 -67 5
-6 66 136 91 213 70 216 75 433 10 458 -30 11 -70 6 -100 -12z"/>
<path d="M9321 10273 c-2 -60 -3 -119 -4 -133 -1 -16 3 -25 13 -25 11 0 15 12
16 45 l1 45 569 5 c497 4 569 7 569 20 0 13 -69 15 -567 13 l-568 -2 0 69 c0
52 -3 70 -14 70 -10 0 -14 -25 -15 -107z"/>
<path d="M6889 9993 l-34 -38 38 34 c34 33 42 41 34 41 -2 0 -19 -17 -38 -37z"/>
<path d="M9365 10013 c-81 -5 -88 -8 -75 -33 9 -17 21 -20 75 -20 l65 0 0 30
c0 17 -1 29 -2 28 -2 -1 -30 -3 -63 -5z"/>
<path d="M10489 9976 c-3 -3 -232 -8 -509 -12 -278 -4 -507 -8 -509 -10 -17
-16 71 -19 513 -22 454 -3 503 -2 516 13 12 14 2 44 -11 31z"/>
<path d="M9403 9662 c-62 -2 -83 -6 -83 -17 0 -19 50 -20 638 -17 506 2 512 3
512 22 0 20 -5 21 -492 18 -271 -2 -530 -4 -575 -6z"/>
<path d="M9408 9579 c-34 -25 -68 -80 -68 -109 0 -12 4 -20 8 -18 10 4 122
135 122 143 0 12 -37 3 -62 -16z"/>
<path d="M7915 9544 c-15 -16 -35 -45 -45 -64 -18 -36 -35 -100 -27 -100 3 0
19 28 36 63 17 34 40 74 53 89 30 38 16 47 -17 12z"/>
<path d="M8435 9485 c-12 -32 -22 -45 -31 -41 -8 3 -14 -1 -14 -8 0 -20 -50
-125 -129 -274 -39 -73 -71 -139 -71 -146 0 -8 -6 -21 -12 -28 -7 -7 -21 -29
-31 -48 -19 -38 -101 -147 -163 -218 -20 -23 -34 -45 -31 -48 10 -11 26 6 96
100 183 247 317 479 380 660 32 93 37 131 6 51z"/>
<path d="M9557 9481 c-37 -63 -11 -111 61 -111 22 0 44 5 47 10 4 7 13 6 27
-1 14 -8 23 -8 31 0 7 7 16 7 28 0 14 -7 21 -5 31 11 16 25 25 25 33 0 14 -43
55 -10 55 43 0 33 -25 54 -44 38 -10 -8 -16 -9 -21 -1 -10 16 -22 12 -28 -12
l-6 -21 -19 23 c-17 21 -22 22 -35 11 -9 -7 -19 -22 -22 -32 -5 -14 -12 -18
-25 -14 -10 3 -30 0 -44 -6 -16 -8 -30 -9 -36 -3 -14 14 12 57 38 64 38 8 30
25 -13 28 -35 3 -42 -1 -58 -27z"/>
<path d="M10098 9484 c-5 -4 -8 -16 -8 -28 0 -14 3 -17 11 -9 6 6 9 19 7 28
-1 9 -6 13 -10 9z"/>
<path d="M9895 9460 c-7 -23 12 -90 26 -90 5 0 9 10 9 23 0 22 1 21 13 -3 17
-33 41 -32 45 2 4 36 -14 68 -38 68 -11 0 -20 5 -20 10 0 18 -29 10 -35 -10z"/>
<path d="M1048 9205 c-7 -9 -24 -29 -38 -44 -14 -15 -52 -63 -85 -106 -77
-101 -141 -167 -185 -191 -32 -18 -60 -19 -360 -20 -179 0 -337 -4 -353 -7
l-27 -7 0 -801 0 -801 29 5 c16 4 63 0 104 -7 67 -11 81 -18 132 -61 74 -64
131 -129 144 -165 9 -28 8 -30 -17 -36 -162 -36 -392 -145 -392 -186 0 -26 12
-23 124 32 56 28 105 50 108 50 3 0 23 8 44 17 22 9 42 16 46 15 4 -1 26 5 49
13 24 9 46 12 50 8 18 -18 55 -309 74 -593 4 -52 18 -201 31 -330 14 -129 31
-307 40 -395 8 -88 16 -167 19 -175 2 -8 7 -64 10 -125 4 -60 8 -112 10 -115
2 -3 8 -66 15 -139 6 -74 14 -139 17 -144 3 -5 13 0 22 11 15 20 27 21 341 25
271 4 328 2 346 -10 20 -13 23 -12 36 5 10 15 12 45 6 133 -9 153 -35 437 -53
579 -8 63 -25 237 -39 385 -14 149 -30 317 -36 375 -7 58 -18 168 -26 245 -36
360 -105 738 -205 1125 -16 63 -40 167 -53 230 -14 63 -36 169 -51 235 -47
214 -85 400 -85 421 0 36 -32 128 -52 150 -19 21 -19 22 54 96 40 40 105 106
143 146 l70 73 18 -41 c31 -71 54 -180 71 -335 20 -192 23 -228 45 -505 6 -74
16 -173 21 -220 6 -47 22 -220 35 -385 56 -687 60 -724 111 -1035 40 -246 71
-470 84 -615 11 -114 34 -337 49 -470 6 -49 13 -130 16 -180 3 -49 11 -109 17
-132 6 -24 8 -49 5 -57 -3 -8 1 -29 9 -45 18 -35 42 -56 30 -25 -4 10 -16 109
-27 219 -30 322 -47 481 -74 705 -2 14 -6 50 -9 80 -14 135 -56 428 -75 522
-9 45 -19 121 -36 263 -26 216 -36 323 -45 445 -5 80 -14 204 -20 275 -5 72
-12 162 -14 200 -3 39 -14 169 -25 290 -11 121 -27 315 -35 430 -33 441 -38
478 -85 600 -5 11 -14 40 -22 64 -16 50 -31 60 -51 36z m-456 -1744 c6 -5
-193 -315 -216 -339 -2 -1 -24 16 -49 38 l-45 42 59 86 c33 48 72 105 86 127
38 60 50 66 108 59 27 -4 53 -9 57 -13z m148 -266 c0 -3 14 -66 30 -140 17
-74 30 -163 30 -197 0 -54 -4 -66 -27 -90 -33 -35 -43 -35 -76 0 -33 35 -122
183 -138 229 -16 49 -1 73 90 145 67 53 91 67 91 53z"/>
<path d="M6582 8980 c-37 -58 -46 -108 -46 -255 0 -117 3 -151 22 -210 12 -38
30 -83 41 -98 18 -27 19 -27 24 -7 3 12 -6 54 -21 93 -23 65 -26 86 -26 222
-1 121 3 160 17 202 25 71 19 100 -11 53z"/>
<path d="M7317 8769 c-123 -28 -328 -186 -444 -343 -123 -167 -223 -464 -223
-663 0 -56 4 -105 10 -108 11 -7 15 9 30 145 34 304 122 507 304 699 34 35 93
88 132 117 74 55 196 124 219 124 18 0 30 19 19 29 -5 5 -26 4 -47 0z"/>
<path d="M7084 8193 c-169 -256 -251 -401 -285 -501 -26 -78 -29 -98 -20 -119
6 -13 16 -23 21 -21 5 2 30 28 55 58 42 52 84 140 65 140 -4 0 -27 -30 -50
-66 -23 -36 -43 -64 -45 -62 -9 8 34 129 65 185 18 32 91 147 162 255 124 190
148 233 148 264 0 33 -23 6 -116 -133z"/>
<path d="M6580 8279 c-19 -31 -21 -45 -17 -144 5 -109 29 -210 63 -260 13 -19
14 -18 14 8 0 15 -9 60 -20 100 -26 90 -36 228 -22 281 15 52 8 57 -18 15z"/>
<path d="M5926 6957 c-33 -49 -65 -261 -46 -297 18 -34 30 -13 30 53 0 74 24
180 50 224 16 27 16 32 3 37 -21 8 -21 8 -37 -17z"/>
<path d="M4647 6888 c-2 -7 18 -37 45 -66 64 -68 96 -140 153 -347 42 -155 65
-216 65 -173 0 36 -31 189 -55 272 -39 133 -86 228 -140 281 -49 47 -61 53
-68 33z"/>
<path d="M5973 6833 c-24 -76 -25 -295 -3 -333 14 -23 16 -11 21 145 4 94 10
187 14 208 12 60 -12 45 -32 -20z"/>
<path d="M6711 6258 c-48 -27 -61 -30 -132 -29 -63 1 -96 -4 -171 -29 -51 -16
-113 -35 -138 -41 -40 -10 -43 -12 -22 -20 12 -5 22 -11 22 -14 0 -2 -28 -18
-62 -33 -40 -19 -80 -47 -109 -79 -60 -64 -68 -87 -38 -119 28 -30 57 -30 105
-2 27 16 58 23 119 26 81 4 81 4 108 -28 15 -17 27 -42 27 -55 0 -21 -7 -25
-57 -35 -100 -20 -143 -32 -143 -41 0 -21 35 -79 51 -84 23 -8 189 22 260 45
78 27 205 85 213 99 5 7 -8 11 -40 11 -46 0 -47 0 -29 20 10 11 26 22 37 26
16 5 19 11 13 32 -3 15 -10 62 -15 106 -4 43 -13 83 -19 89 -22 22 -9 26 67
20 83 -6 108 5 100 44 -3 14 -14 18 -53 19 -28 0 -61 1 -75 2 l-25 3 30 24
c17 14 35 25 41 25 12 0 44 32 44 43 0 16 -59 2 -109 -25z"/>
<path d="M4331 6146 c-11 -14 -10 -17 14 -26 14 -5 43 -10 64 -10 47 0 114
-26 108 -43 -2 -8 -37 -14 -100 -17 -52 -3 -99 -8 -103 -12 -4 -4 -1 -14 6
-23 9 -11 32 -15 86 -15 l74 0 0 -103 c0 -123 7 -150 58 -227 l40 -59 -37 -3
c-41 -4 -43 -4 109 -52 205 -65 260 -47 260 86 0 116 -34 204 -119 305 -102
122 -241 200 -375 210 -58 5 -74 3 -85 -11z m251 -198 c13 -10 17 -38 20 -132
3 -136 -6 -153 -46 -84 -43 74 -48 228 -7 228 9 0 24 -6 33 -12z m96 -103 c14
-30 15 -84 3 -104 -14 -22 -41 27 -41 75 0 59 18 73 38 29z"/>
<path d="M5639 5054 c-36 -38 -117 -84 -146 -84 -26 0 -134 57 -165 87 -22 21
-28 23 -28 11 0 -21 52 -74 111 -114 37 -26 50 -42 69 -93 20 -54 21 -64 9
-76 -24 -24 -178 -58 -239 -52 -68 6 -184 51 -228 89 -35 30 -47 34 -57 18
-19 -30 61 -90 119 -90 13 0 48 -11 78 -25 37 -18 70 -25 112 -25 82 0 215 28
249 52 l29 20 57 -26 c31 -14 82 -28 112 -32 61 -7 196 13 304 46 62 19 77 29
131 86 34 35 65 64 69 64 5 0 17 -7 27 -17 16 -14 18 -14 18 0 0 8 -7 23 -16
31 -31 32 -70 16 -113 -47 -80 -117 -339 -170 -511 -105 -63 24 -86 42 -106
80 -27 52 -19 70 57 118 38 24 79 58 89 76 36 57 20 61 -31 8z"/>
<path d="M5523 4630 c-31 -13 -36 -41 -13 -88 36 -73 94 -96 161 -62 84 42
100 77 56 118 -41 38 -147 55 -204 32z m165 -41 c29 -11 28 -40 -3 -69 -46
-43 -171 -10 -163 44 6 42 87 54 166 25z"/>
<path d="M1600 4507 c0 -16 7 -74 14 -130 8 -56 20 -140 26 -187 64 -507 70
-547 125 -755 15 -55 29 -112 32 -127 5 -28 23 -39 23 -15 0 7 -9 56 -20 108
-21 93 -77 443 -106 654 -9 61 -20 139 -25 175 -5 36 -11 79 -13 95 -9 68 -30
162 -42 185 l-13 25 -1 -28z"/>
<path d="M9226 1222 c-2 -4 -1 -14 4 -22 7 -11 9 -9 7 8 -1 24 -3 26 -11 14z"/>
<path d="M9250 1206 c0 -2 7 -9 15 -16 9 -7 15 -8 15 -2 0 5 -7 12 -15 16 -8
3 -15 4 -15 2z"/>
<path d="M0 705 c0 -9 6 -18 13 -20 14 -6 513 -109 627 -130 41 -8 127 -23
190 -35 63 -11 147 -27 185 -35 88 -18 388 -75 605 -115 195 -35 275 -52 515
-105 179 -39 619 -132 905 -191 285 -59 329 -66 460 -69 172 -5 185 -9 -280
84 -190 38 -421 86 -515 105 -93 20 -255 54 -360 76 -104 22 -271 57 -370 79
-99 21 -256 53 -350 71 -93 17 -226 43 -295 57 -69 14 -150 29 -180 33 -30 5
-100 17 -155 29 -55 11 -152 29 -215 41 -63 12 -180 34 -260 50 -80 16 -197
38 -260 50 -63 11 -134 25 -157 30 -63 15 -103 13 -103 -5z"/>
<path d="M0 200 l0 -200 1048 1 c631 1 1027 5 997 10 -27 5 -88 15 -135 23
-128 23 -565 103 -735 136 -82 16 -224 43 -315 60 -91 17 -253 49 -360 71
-209 43 -415 84 -467 93 l-33 6 0 -200z"/>
<path d="M7330 56 c0 -2 8 -10 18 -17 15 -13 16 -12 3 4 -13 16 -21 21 -21 13z"/>
</g>
</svg>
